<svg width="1024" height="1024" viewBox="0 0 1024 1024" fill="none" xmlns="http://www.w3.org/2000/svg">
<g clip-path="url(#clip0_1490_87)">
<rect width="1024" height="1024" rx="250" fill="#F8F8F8"/>
<path d="M637.306 295.633C588.355 338.598 601.458 459.414 707.382 525.159C805.485 586.068 931.618 445.53 842.879 356.513C765.469 278.891 712.06 230.034 637.306 295.633Z" fill="black"/>
<path d="M387.589 295.634C312.551 230.032 258.939 278.893 181.237 356.514C92.1579 445.53 218.77 586.067 317.246 525.159C423.576 459.414 436.728 338.599 387.589 295.634Z" fill="black"/>
<path d="M675.106 687.912C657.499 708.222 634.949 718.206 613.599 718.206C594.533 718.093 576.188 710.675 560.751 693.304C549.519 680.554 539.889 661.897 534.486 636.397C573.756 629.779 603.023 604.191 603.023 573.555C603.023 537.897 563.411 509 514.511 509C465.608 509 425.967 537.897 425.967 573.555C425.967 601.94 451.146 626.015 486.102 634.659C481.014 661.331 471.583 680.671 460.633 693.708C453.375 702.406 445.401 708.427 437.143 712.391C428.909 716.328 420.309 718.209 411.565 718.209C391.96 718.209 370.952 708.595 354.232 688.316C347.088 679.587 334.197 678.332 325.479 685.462C316.761 692.595 315.476 705.431 322.62 714.16C345.996 742.685 378.382 759 411.565 759C426.284 759 441.06 755.751 454.806 749.161C475.472 739.319 493.589 722.005 506.68 698.357C508.022 695.959 509.28 693.449 510.508 690.911C516.11 701.891 522.598 711.762 530.088 720.264C552.637 745.991 583.218 759.114 613.599 758.969C647.783 758.997 681.451 743.023 706.057 714.556C713.403 706.025 712.457 693.162 703.913 685.804C695.366 678.443 682.478 679.382 675.106 687.912Z" fill="black"/>
<ellipse cx="328" cy="377.001" rx="50" ry="38" transform="rotate(-17.965 328 377.001)" fill="white"/>
<ellipse cx="50" cy="38" rx="50" ry="38" transform="matrix(-0.951245 -0.308435 -0.308435 0.951245 759.566 355.844)" fill="white"/>
</g>
<defs>
<clipPath id="clip0_1490_87">
<rect width="1024" height="1024" fill="white"/>
</clipPath>
</defs>
</svg>
